<?xml version="1.0" encoding="UTF-8"?>
<svg width="16px" height="18px" viewBox="0 0 16 18" version="1.1" xmlns="http://www.w3.org/2000/svg" xmlns:xlink="http://www.w3.org/1999/xlink">
    <title>形状</title>
    <g id="220428-以货打单" stroke="none" stroke-width="1" fill="none" fill-rule="evenodd">
        <g id="卡片-导航" transform="translate(-928.000000, -78.000000)" fill="#999999" fill-rule="nonzero">
            <path d="M936.199677,78.0674975 L936.301441,78.0674975 C936.853726,78.0674975 937.301441,78.5152127 937.301441,79.0674975 L937.301441,79.2234676 L937.301441,79.2234676 C940.664257,79.7489081 943.291472,82.481212 943.606737,85.9491247 L943.606737,91.7798536 C943.606737,92.3321383 943.159022,92.7798536 942.606737,92.7798536 L929.894388,92.7798536 C929.342104,92.7798536 928.894388,92.3321383 928.894388,91.7798536 L928.894388,85.9491247 L928.894388,85.9491247 C929.209653,82.481212 931.836868,79.6438288 935.199684,79.2234676 L935.199683,79.0674975 C935.199673,78.5152127 935.647386,78.0674946 936.19967,78.0674911 C936.199672,78.0674911 936.199675,78.0674911 936.199677,78.0674975 Z M930.996138,90.6780965 L941.504973,90.6780965 L941.504973,86.4745578 C941.504973,83.5320782 939.19303,81.2201528 936.250568,81.2201528 C933.308088,81.2201528 930.996138,83.5320954 930.996138,86.4745578 L930.996138,90.6780965 L930.996138,90.6780965 Z M934.097902,93.8307444 L938.403198,93.8307444 C938.955483,93.8307444 939.403198,94.2784597 939.403198,94.8307444 L939.403198,94.9325089 C939.403198,95.4847936 938.955483,95.9325089 938.403198,95.9325089 L934.097902,95.9325089 C933.545618,95.9325089 933.097902,95.4847936 933.097902,94.9325089 L933.097902,94.8307444 C933.097902,94.2784597 933.545618,93.8307444 934.097902,93.8307444 Z" id="形状"></path>
        </g>
    </g>
</svg>